<?xml version="1.0" ?><!DOCTYPE svg  PUBLIC '-//W3C//DTD SVG 1.1//EN'  'http://www.w3.org/Graphics/SVG/1.1/DTD/svg11.dtd'><svg enable-background="new 0 0 100 100" id="Слой_1" version="1.1" viewBox="0 0 100 100" xml:space="preserve" xmlns="http://www.w3.org/2000/svg" xmlns:xlink="http://www.w3.org/1999/xlink"><path d="M15.6,44.1c0.3,0.3,0.6,0.4,1,0.5l22.3,6l-7.3,7.1c-0.6,0.6-0.9,1.6-0.7,2.4c0.2,0.9,0.9,1.6,1.8,1.8l9.7,2.6  c0.2,0.1,0.4,0.1,0.6,0.1c0.4,0,0.7-0.1,1-0.2l4.1-1.9c0.3,0.7,0.9,1.2,1.6,1.4c1.3,0.4,2.7-0.4,3.1-1.8c0.2-0.6,0.1-1.2-0.2-1.7  l8.3-3.8l16.5,4.4c-0.4,1.3,0.4,2.7,1.8,3.1s2.7-0.4,3.1-1.8l1.9,0.5c0.6,0.2,1.3,0.3,1.9,0.3c3.7,0,6.8-2.6,7.4-6.3  c0.6-3.8-1.9-7.5-5.7-8.5l-23.7-6.4l-10-15c-0.3-0.5-0.8-0.9-1.4-1L43,23.2c-0.9-0.2-1.8,0-2.4,0.6c-0.6,0.6-0.9,1.5-0.7,2.4  l2.6,9.8L21,30.3l-7.9-7c-0.6-0.6-1.5-0.8-2.4-0.5C9.9,23,9.3,23.6,9,24.5l-2.6,9.7c-0.2,0.9,0,1.9,0.8,2.5L15.6,44.1z M50.5,30.4  l6.3,9.5l-8.7-2.3l-2.2-8.4L50.5,30.4z M12.8,29.7l5.3,4.7c0.3,0.3,0.6,0.4,1,0.5L86.6,53c1.3,0.4,2.2,1.6,2,2.9  c-0.2,1.4-1.7,2.4-3.1,2l-24.1-6.5c-0.6-0.2-1.2-0.1-1.7,0.1l-16.9,7.8l-4.5-1.2l7.3-7.1c0.6-0.6,0.9-1.6,0.7-2.4  c-0.2-0.9-0.9-1.6-1.8-1.8l-26-7l-6.8-6L12.8,29.7z"/><path d="M92.5,72.4h-85c-1.4,0-2.5,1.1-2.5,2.5s1.1,2.5,2.5,2.5h85c1.4,0,2.5-1.1,2.5-2.5S93.9,72.4,92.5,72.4z"/></svg>