<?xml version="1.0" ?><!DOCTYPE svg  PUBLIC '-//W3C//DTD SVG 1.1//EN'  'http://www.w3.org/Graphics/SVG/1.1/DTD/svg11.dtd'><svg enable-background="new 0 0 100 100" id="Слой_1" version="1.1" viewBox="0 0 100 100" xml:space="preserve" xmlns="http://www.w3.org/2000/svg" xmlns:xlink="http://www.w3.org/1999/xlink"><path d="M77.5,16.3c-9.6,0-17.5,7.9-17.5,17.5s7.9,17.5,17.5,17.5S95,43.4,95,33.8S87.1,16.3,77.5,16.3z M77.5,46.3  c-6.9,0-12.5-5.6-12.5-12.5s5.6-12.5,12.5-12.5S90,26.9,90,33.8S84.4,46.3,77.5,46.3z"/><path d="M82.5,31.3H80v-5c0-1.4-1.1-2.5-2.5-2.5S75,24.9,75,26.3v7.5c0,1.4,1.1,2.5,2.5,2.5h5c1.4,0,2.5-1.1,2.5-2.5  S83.9,31.3,82.5,31.3z"/><path d="M87.3,56.3H62.7L49.1,44.4c-0.5-0.4-1-0.6-1.6-0.6h-10c-0.9,0-1.7,0.5-2.2,1.2c-0.4,0.8-0.5,1.7,0,2.5l5,8.8H18.1l-9.5-4.7  c-0.8-0.4-1.7-0.3-2.4,0.1S5,52.9,5,53.8v10c0,0.9,0.5,1.8,1.4,2.2l10,5c0.3,0.2,0.7,0.3,1.1,0.3h23.1L35.4,80  c-0.5,0.8-0.5,1.7,0,2.5c0.4,0.8,1.3,1.3,2.2,1.3h10c0.6,0,1.2-0.2,1.6-0.6l14.3-11.9h24.1c2.1,0,4.1-0.9,5.6-2.5  c1.4-1.6,2.1-3.7,1.9-5.8C94.6,59.2,91.2,56.3,87.3,56.3z M46.6,48.8l8.6,7.5h-9l-4.3-7.5H46.6z M89.4,65.4  c-0.5,0.5-1.1,0.8-1.9,0.8h-25c-0.6,0-1.2,0.2-1.6,0.6L46.6,78.8h-4.7l5.2-8.7c0.5-0.8,0.5-1.7,0-2.5c-0.4-0.8-1.3-1.3-2.2-1.3H18.1  l-8.1-4v-4.4l6.4,3.2c0.3,0.2,0.7,0.3,1.1,0.3h69.8c1.4,0,2.6,1,2.7,2.2C90.1,64.2,89.8,64.9,89.4,65.4z"/></svg>