<?xml version="1.0" ?><!DOCTYPE svg  PUBLIC '-//W3C//DTD SVG 1.1//EN'  'http://www.w3.org/Graphics/SVG/1.1/DTD/svg11.dtd'><svg enable-background="new 0 0 100 100" id="Слой_1" version="1.1" viewBox="0 0 100 100" xml:space="preserve" xmlns="http://www.w3.org/2000/svg" xmlns:xlink="http://www.w3.org/1999/xlink"><path d="M92.5,71.6h-85c-1.4,0-2.5,1.1-2.5,2.5s1.1,2.5,2.5,2.5h85c1.4,0,2.5-1.1,2.5-2.5S93.9,71.6,92.5,71.6z"/><path d="M7.7,53.8c0.2,0.9,1,1.6,1.9,1.8l11,2.2c0.4,0.1,0.8,0.1,1.1,0l22.3-6l-2.8,9.8c-0.2,0.9,0,1.8,0.6,2.4  c0.5,0.5,1.1,0.7,1.8,0.7c0.2,0,0.4,0,0.6-0.1l9.7-2.6c0.6-0.2,1.1-0.5,1.4-1l2.6-3.7c0.6,0.4,1.4,0.6,2.1,0.4  c1.3-0.4,2.1-1.7,1.8-3.1c-0.2-0.6-0.5-1.1-1-1.4l5.3-7.5l16.5-4.4c0,0,0,0,0,0c0.4,1.3,1.7,2.1,3.1,1.8c1.3-0.4,2.1-1.7,1.8-3.1  c0,0,0,0,0,0l1.9-0.5c2-0.5,3.8-1.9,4.7-3.8c1-1.9,1.1-4.1,0.4-6.1c-1.1-2.9-3.9-4.8-7.1-4.8c-0.7,0-1.4,0.1-2,0.3l-23.7,6.4  l-16.2-8c-0.5-0.3-1.2-0.3-1.8-0.2L34,26.1c-0.9,0.2-1.5,0.9-1.8,1.8c-0.2,0.9,0,1.8,0.6,2.4l7.1,7.2l-21.5,5.8L8.1,41  c-0.8-0.2-1.7,0.1-2.3,0.7c-0.6,0.6-0.8,1.5-0.6,2.4L7.7,53.8z M39.4,29.8l4.6-1.2l10.2,5l-8.7,2.3L39.4,29.8z M18,48.2  c0.4,0.1,0.8,0.1,1.1,0l67.4-18.1c1.3-0.4,2.8,0.3,3.2,1.5c0.3,0.7,0.2,1.4-0.1,2c-0.3,0.6-0.9,1.1-1.6,1.3l-24.1,6.5  c-0.6,0.2-1.1,0.5-1.4,1L51.8,57.5l-4.5,1.2l2.8-9.8c0.2-0.9,0-1.8-0.6-2.4c-0.5-0.5-1.1-0.7-1.8-0.7c-0.2,0-0.4,0-0.6,0.1l-26,7  L12.2,51L11,46.8L18,48.2z"/></svg>