<?xml version="1.0" encoding="UTF-8" standalone="no"?>
<svg
   xmlns:dc="http://purl.org/dc/elements/1.1/"
   xmlns:cc="http://creativecommons.org/ns#"
   xmlns:rdf="http://www.w3.org/1999/02/22-rdf-syntax-ns#"
   xmlns:svg="http://www.w3.org/2000/svg"
   xmlns="http://www.w3.org/2000/svg"
   xmlns:sodipodi="http://sodipodi.sourceforge.net/DTD/sodipodi-0.dtd"
   xmlns:inkscape="http://www.inkscape.org/namespaces/inkscape"
   enable-background="new 0 0 100 100"
   id="Слой_1"
   version="1.1"
   viewBox="0 0 100 100"
   xml:space="preserve"
   inkscape:version="0.91 r13725"
   sodipodi:docname="flight-time-in.svg"><metadata
     id="metadata13"><rdf:RDF><cc:Work
         rdf:about=""><dc:format>image/svg+xml</dc:format><dc:type
           rdf:resource="http://purl.org/dc/dcmitype/StillImage" /><dc:title></dc:title></cc:Work></rdf:RDF></metadata><defs
     id="defs11" /><sodipodi:namedview
     pagecolor="#ffffff"
     bordercolor="#666666"
     borderopacity="1"
     objecttolerance="10"
     gridtolerance="10"
     guidetolerance="10"
     inkscape:pageopacity="0"
     inkscape:pageshadow="2"
     inkscape:window-width="640"
     inkscape:window-height="480"
     id="namedview9"
     showgrid="false"
     inkscape:zoom="2.36"
     inkscape:cx="50"
     inkscape:cy="50"
     inkscape:window-x="0"
     inkscape:window-y="0"
     inkscape:window-maximized="0"
     inkscape:current-layer="Слой_1" /><path
     d="m 22.415254,16.3 c -9.6,0 -17.4999998,7.9 -17.4999998,17.5 0,9.6 7.8999998,17.5 17.4999998,17.5 9.6,0 17.5,-7.9 17.5,-17.5 0,-9.6 -7.9,-17.5 -17.5,-17.5 z m 0,30 c -6.9,0 -12.4999998,-5.6 -12.4999998,-12.5 0,-6.9 5.5999998,-12.5 12.4999998,-12.5 6.9,0 12.5,5.6 12.5,12.5 0,6.9 -5.6,12.5 -12.5,12.5 z"
     id="path3"
     inkscape:connector-curvature="0" /><path
     d="m 27.415254,31.3 -2.5,0 0,-5 c 0,-1.4 -1.1,-2.5 -2.5,-2.5 -1.4,0 -2.5,1.1 -2.5,2.5 l 0,7.5 c 0,1.4 1.1,2.5 2.5,2.5 l 5,0 c 1.4,0 2.5,-1.1 2.5,-2.5 0,-1.4 -1.1,-2.5 -2.5,-2.5 z"
     id="path5"
     inkscape:connector-curvature="0" /><path
     d="m 12.833613,56.3 24.6,0 13.6,-11.9 c 0.5,-0.4 1,-0.6 1.6,-0.6 l 10,0 c 0.9,0 1.7,0.5 2.2,1.2 0.4,0.8 0.5,1.7 0,2.5 l -5,8.8 22.2,0 9.5,-4.7 c 0.8,-0.4 1.7,-0.3 2.4,0.1 0.7,0.4 1.2,1.2 1.2,2.1 l 0,10 c 0,0.9 -0.5,1.8 -1.4,2.2 l -10,5 c -0.3,0.2 -0.7,0.3 -1.1,0.3 l -23.1,0 5.2,8.7 c 0.5,0.8 0.5,1.7 0,2.5 -0.4,0.8 -1.3,1.3 -2.2,1.3 l -10,0 c -0.6,0 -1.2,-0.2 -1.6,-0.6 l -14.3,-11.9 -24.1,0 c -2.1,0 -4.1000001,-0.9 -5.6000001,-2.5 -1.4,-1.6 -2.1,-3.7 -1.9,-5.8 0.5,-3.8 3.9,-6.7 7.8000001,-6.7 z m 40.7,-7.5 -8.6,7.5 9,0 4.3,-7.5 -4.7,0 z m -42.8,16.6 c 0.5,0.5 1.1,0.8 1.9,0.8 l 25,0 c 0.6,0 1.2,0.2 1.6,0.6 l 14.3,12 4.7,0 -5.2,-8.7 c -0.5,-0.8 -0.5,-1.7 0,-2.5 0.4,-0.8 1.3,-1.3 2.2,-1.3 l 26.8,0 8.1,-4 0,-4.4 -6.4,3.2 c -0.3,0.2 -0.7,0.3 -1.1,0.3 l -69.8,0 c -1.4,0 -2.6,1 -2.7,2.2 -0.1,0.6 0.2,1.3 0.6,1.8 z"
     id="path7"
     inkscape:connector-curvature="0" /></svg>