<?xml version="1.0" encoding="UTF-8" standalone="no"?>
<svg
   xmlns:dc="http://purl.org/dc/elements/1.1/"
   xmlns:cc="http://creativecommons.org/ns#"
   xmlns:rdf="http://www.w3.org/1999/02/22-rdf-syntax-ns#"
   xmlns:svg="http://www.w3.org/2000/svg"
   xmlns="http://www.w3.org/2000/svg"
   xmlns:sodipodi="http://sodipodi.sourceforge.net/DTD/sodipodi-0.dtd"
   xmlns:inkscape="http://www.inkscape.org/namespaces/inkscape"
   enable-background="new 0 0 100 100"
   id="Слой_1"
   version="1.1"
   viewBox="0 0 100 100"
   xml:space="preserve"
   inkscape:version="0.91 r13725"
   sodipodi:docname="flight-depart-in.svg"><metadata
     id="metadata11"><rdf:RDF><cc:Work
         rdf:about=""><dc:format>image/svg+xml</dc:format><dc:type
           rdf:resource="http://purl.org/dc/dcmitype/StillImage" /><dc:title></dc:title></cc:Work></rdf:RDF></metadata><defs
     id="defs9" /><sodipodi:namedview
     pagecolor="#ffffff"
     bordercolor="#666666"
     borderopacity="1"
     objecttolerance="10"
     gridtolerance="10"
     guidetolerance="10"
     inkscape:pageopacity="0"
     inkscape:pageshadow="2"
     inkscape:window-width="913"
     inkscape:window-height="527"
     id="namedview7"
     showgrid="false"
     inkscape:zoom="2.36"
     inkscape:cx="50"
     inkscape:cy="50"
     inkscape:window-x="0"
     inkscape:window-y="0"
     inkscape:window-maximized="0"
     inkscape:current-layer="Слой_1" /><path
     d="M92.5,71.6h-85c-1.4,0-2.5,1.1-2.5,2.5s1.1,2.5,2.5,2.5h85c1.4,0,2.5-1.1,2.5-2.5S93.9,71.6,92.5,71.6z"
     id="path3" /><path
     d="m 92.376327,53.8 c -0.2,0.9 -1,1.6 -1.9,1.8 l -11,2.2 c -0.4,0.1 -0.8,0.1 -1.1,0 l -22.3,-6 2.8,9.8 c 0.2,0.9 0,1.8 -0.6,2.4 -0.5,0.5 -1.1,0.7 -1.8,0.7 -0.2,0 -0.4,0 -0.6,-0.1 l -9.7,-2.6 c -0.6,-0.2 -1.1,-0.5 -1.4,-1 l -2.6,-3.7 c -0.6,0.4 -1.4,0.6 -2.1,0.4 -1.3,-0.4 -2.1,-1.7 -1.8,-3.1 0.2,-0.6 0.5,-1.1 1,-1.4 l -5.3,-7.5 -16.5,-4.4 c 0,0 0,0 0,0 -0.4,1.3 -1.7,2.1 -3.1,1.8 -1.3,-0.4 -2.1,-1.7 -1.8,-3.1 0,0 0,0 0,0 l -1.9,-0.5 C 8.6763268,39 6.8763268,37.6 5.9763268,35.7 c -1,-1.9 -1.1,-4.1 -0.4,-6.1 1.1,-2.9 3.9,-4.8 7.1000002,-4.8 0.7,0 1.4,0.1 2,0.3 l 23.7,6.4 16.2,-8 c 0.5,-0.3 1.2,-0.3 1.8,-0.2 l 9.7,2.8 c 0.9,0.2 1.5,0.9 1.8,1.8 0.2,0.9 0,1.8 -0.6,2.4 l -7.1,7.2 21.5,5.8 10.3,-2.3 c 0.8,-0.2 1.7,0.1 2.3,0.7 0.6,0.6 0.8,1.5 0.6,2.4 l -2.5,9.7 z m -31.7,-24 -4.6,-1.2 -10.2,5 8.7,2.3 6.1,-6.1 z m 21.4,18.4 c -0.4,0.1 -0.8,0.1 -1.1,0 l -67.4,-18.1 c -1.3,-0.4 -2.8,0.3 -3.2,1.5 -0.3,0.7 -0.2,1.4 0.1,2 0.3,0.6 0.9,1.1 1.6,1.3 l 24.1,6.5 c 0.6,0.2 1.1,0.5 1.4,1 l 10.7,15.1 4.5,1.2 -2.8,-9.8 c -0.2,-0.9 0,-1.8 0.6,-2.4 0.5,-0.5 1.1,-0.7 1.8,-0.7 0.2,0 0.4,0 0.6,0.1 l 26,7 8.9,-1.9 1.2,-4.2 -7,1.4 z"
     id="path5"
     inkscape:connector-curvature="0" /></svg>